<?xml version="1.0" encoding="UTF-8"?>
<svg width="24" height="24" viewBox="0 0 24 24" fill="none" xmlns="http://www.w3.org/2000/svg">
  <path d="M12 2.163C15.204 2.163 15.584 2.175 16.85 2.233C18.021 2.287 18.655 2.46 19.055 2.643C19.512 2.85 19.833 3.088 20.17 3.425C20.507 3.762 20.745 4.083 20.952 4.54C21.135 4.94 21.308 5.574 21.362 6.745C21.42 8.011 21.432 8.391 21.432 11.595C21.432 14.799 21.42 15.179 21.362 16.445C21.308 17.616 21.135 18.25 20.952 18.65C20.745 19.107 20.507 19.428 20.17 19.765C19.833 20.102 19.512 20.34 19.055 20.547C18.655 20.73 18.021 20.903 16.85 20.957C15.584 21.015 15.204 21.027 12 21.027C8.796 21.027 8.416 21.015 7.15 20.957C5.979 20.903 5.345 20.73 4.945 20.547C4.488 20.34 4.167 20.102 3.83 19.765C3.493 19.428 3.255 19.107 3.048 18.65C2.865 18.25 2.692 17.616 2.638 16.445C2.58 15.179 2.568 14.799 2.568 11.595C2.568 8.391 2.58 8.011 2.638 6.745C2.692 5.574 2.865 4.94 3.048 4.54C3.255 4.083 3.493 3.762 3.83 3.425C4.167 3.088 4.488 2.85 4.945 2.643C5.345 2.46 5.979 2.287 7.15 2.233C8.416 2.175 8.796 2.163 12 2.163ZM12 0C8.741 0 8.333 0.014 7.053 0.072C5.775 0.131 4.905 0.309 4.141 0.586C3.35 0.873 2.676 1.269 2.002 1.943C1.328 2.617 0.932 3.291 0.645 4.082C0.368 4.846 0.19 5.716 0.131 6.994C0.072 8.274 0.058 8.682 0.058 11.941C0.058 15.2 0.072 15.608 0.131 16.888C0.19 18.166 0.368 19.036 0.645 19.8C0.932 20.591 1.328 21.265 2.002 21.939C2.676 22.613 3.35 23.009 4.141 23.296C4.905 23.573 5.775 23.751 7.053 23.81C8.333 23.868 8.741 23.882 12 23.882C15.259 23.882 15.667 23.868 16.947 23.81C18.225 23.751 19.095 23.573 19.859 23.296C20.65 23.009 21.324 22.613 21.998 21.939C22.672 21.265 23.068 20.591 23.355 19.8C23.632 19.036 23.81 18.166 23.869 16.888C23.928 15.608 23.942 15.2 23.942 11.941C23.942 8.682 23.928 8.274 23.869 6.994C23.81 5.716 23.632 4.846 23.355 4.082C23.068 3.291 22.672 2.617 21.998 1.943C21.324 1.269 20.65 0.873 19.859 0.586C19.095 0.309 18.225 0.131 16.947 0.072C15.667 0.014 15.259 0 12 0ZM12 5.838C8.597 5.838 5.838 8.597 5.838 12C5.838 15.403 8.597 18.162 12 18.162C15.403 18.162 18.162 15.403 18.162 12C18.162 8.597 15.403 5.838 12 5.838ZM12 16C9.791 16 8 14.209 8 12C8 9.791 9.791 8 12 8C14.209 8 16 9.791 16 12C16 14.209 14.209 16 12 16ZM18.406 4.155C17.61 4.155 16.969 4.796 16.969 5.592C16.969 6.388 17.61 7.029 18.406 7.029C19.202 7.029 19.843 6.388 19.843 5.592C19.843 4.796 19.202 4.155 18.406 4.155Z" fill="black"/>
</svg> 