<?xml version="1.0" encoding="UTF-8"?>
<svg width="24" height="24" viewBox="0 0 24 24" fill="none" xmlns="http://www.w3.org/2000/svg">
  <path d="M23.498 6.186C23.251 5.322 22.563 4.634 21.699 4.387C20.045 3.9 12 3.9 12 3.9C12 3.9 3.955 3.9 2.301 4.387C1.437 4.634 0.749 5.322 0.502 6.186C0.015 7.84 0.015 12 0.015 12C0.015 12 0.015 16.16 0.502 17.814C0.749 18.678 1.437 19.366 2.301 19.613C3.955 20.1 12 20.1 12 20.1C12 20.1 20.045 20.1 21.699 19.613C22.563 19.366 23.251 18.678 23.498 17.814C23.985 16.16 23.985 12 23.985 12C23.985 12 23.985 7.84 23.498 6.186ZM9.545 15.568V8.432L15.818 12L9.545 15.568Z" fill="black"/>
</svg> 